<svg id="e7ccfc10-0972-46c6-8aeb-2bbbaf4fcec0" data-name="ffc5192c-9797-444f-8bf0-ff938228b347" xmlns="http://www.w3.org/2000/svg" width="31.88" height="29.82" viewBox="0 0 31.88 29.82">
  <title>Клиентам Белая</title>
  <path d="M109,116c-7.33,0-14.61,0-15-.06a10.47,10.47,0,0,1,1.27-5.57c1.24-2.18,4.63-3.2,7.26-4.09,1.1-.37,2.55-0.64,3-1.57a1.33,1.33,0,0,0-.08-1.7,16.64,16.64,0,0,1-2.59-8.79,6.11,6.11,0,1,1,12.23,0,16.63,16.63,0,0,1-2.6,8.79,1.33,1.33,0,0,0-.08,1.7c0.46,0.94,1.91,1.21,3,1.57,2.63,0.87,6,1.91,7.26,4.09a10.47,10.47,0,0,1,1.27,5.57C123.61,116,116.33,116,109,116Z" transform="translate(-93.06 -87.09)" style="fill: none;stroke: #fff;stroke-miterlimit: 22.925600051879883;stroke-width: 1.875px"/>
</svg>
