<svg id="66f1eda3-a32d-43c7-a7f1-f669af822da0" data-name="Слой 1" xmlns="http://www.w3.org/2000/svg" width="31.4" height="31.88" viewBox="0 0 31.4 31.88">
  <title>Главная Красная</title>
  <path d="M-198.34,446.18l-4.75-4.75V435.5a1,1,0,0,0-1-1h-1.36a1,1,0,0,0-1,1v2.67l-5.61-5.61a1.14,1.14,0,0,0-1.61,0l-13.62,13.62a1.14,1.14,0,0,0,.8,1.94h3v13.15a1,1,0,0,0,1,1h5.71a1,1,0,0,0,1-1v-8.56a1,1,0,0,1,1-1h3.8a1,1,0,0,1,1,1v8.56a1,1,0,0,0,1,1h5.71a1,1,0,0,0,1-1V448.12h3.31A1.14,1.14,0,0,0-198.34,446.18Z" transform="translate(228.46 -431.29)" style="fill: none;stroke: #c33;stroke-linecap: round;stroke-linejoin: round;stroke-width: 1.875px"/>
</svg>
