<svg id="a6c6f528-b31d-4a6f-8618-0c2cd348ad75" data-name="66f1eda3-a32d-43c7-a7f1-f669af822da0" xmlns="http://www.w3.org/2000/svg" width="31.49" height="31.92" viewBox="0 0 31.49 31.92">
  <title>Главная Белая</title>
  <path d="M30.12,14.89l-4.75-4.75V4.21a1,1,0,0,0-1-1H23a1,1,0,0,0-1,1V6.88L16.4,1.27a1.14,1.14,0,0,0-1.61,0L1.17,14.89A1.14,1.14,0,0,0,2,16.83H5V30a1,1,0,0,0,1,1h5.71a1,1,0,0,0,1-1V21.42a1,1,0,0,1,1-1h3.8a1,1,0,0,1,1,1V30a1,1,0,0,0,1,1h5.71a1,1,0,0,0,1-1V16.83H29.5A1.14,1.14,0,0,0,30.12,14.89Z" transform="translate(0.1 0)" style="fill: none;stroke: #fff;stroke-linecap: round;stroke-linejoin: round;stroke-width: 1.875px"/>
</svg>
