<svg id="faeccb80-60c4-4156-ae2e-356b8103ed84" data-name="371d173f-78a4-4900-bad3-00aaaf28df21" xmlns="http://www.w3.org/2000/svg" width="425.19" height="34.83" viewBox="0 0 425.19 34.83">
  <title>Sprite</title>
  <g>
    <g>
      <polygon points="17.2 2.49 17.2 26.07 31.05 32.49 31.05 8.39 17.2 2.49" style="fill: none;stroke: #c33;stroke-linecap: round;stroke-linejoin: round;stroke-width: 1.875px"/>
      <polyline points="17.3 26.07 3.44 32.49 3.44 8.39 17.3 2.49" style="fill: none;stroke: #c33;stroke-linecap: round;stroke-linejoin: round;stroke-width: 1.875px"/>
    </g>
    <rect y="0.24" width="34.5" height="34.5" style="fill: none"/>
  </g>
  <g>
    <g>
      <polygon points="73.02 2.54 73.02 26.12 86.87 32.54 86.87 8.44 73.02 2.54" style="fill: none;stroke: #fff;stroke-linecap: round;stroke-linejoin: round;stroke-width: 1.875px"/>
      <polyline points="73.11 26.12 59.26 32.54 59.26 8.44 73.11 2.54" style="fill: none;stroke: #fff;stroke-linecap: round;stroke-linejoin: round;stroke-width: 1.875px"/>
    </g>
    <rect x="55.81" y="0.29" width="34.5" height="34.5" style="fill: none"/>
  </g>
  <g>
    <g>
      <path d="M121.31-69.44h-0.5a6,6,0,0,0-6,6,6,6,0,0,0,6,6h0v12h18v-12a6,6,0,0,0,6-6h0a6,6,0,0,0-6-6H138.3" transform="translate(-0.94 77.83)" style="fill: none;stroke: #c33;stroke-linecap: round;stroke-linejoin: round;stroke-width: 1.8749994039535522px"/>
      <path d="M138.81-66.44a9,9,0,0,0-9-9,9,9,0,0,0-9,9" transform="translate(-0.94 77.83)" style="fill: none;stroke: #c33;stroke-linecap: round;stroke-linejoin: round;stroke-width: 1.8749994039535522px"/>
    </g>
    <rect x="111.63" y="0.14" width="34.5" height="34.5" style="fill: none"/>
  </g>
  <g>
    <g>
      <path d="M229.44-63.54c0,6.63,9,18,12,18s12-11.37,12-18a12,12,0,0,0-12-12A12,12,0,0,0,229.44-63.54Z" transform="translate(-0.94 77.83)" style="fill: none;stroke: #c33;stroke-miterlimit: 22.925600051879883;stroke-width: 1.875px"/>
      <path d="M241.44-60.54a3,3,0,0,0,3-3,3,3,0,0,0-3-3,3,3,0,0,0-3,3A3,3,0,0,0,241.44-60.54Z" transform="translate(-0.94 77.83)" style="fill: none;stroke: #c33;stroke-miterlimit: 22.925600051879883;stroke-width: 1.875px"/>
    </g>
    <rect x="223.25" y="0.05" width="34.5" height="34.5" style="fill: none"/>
  </g>
  <g>
    <rect x="167.44" y="0.33" width="34.5" height="34.5" style="fill: none"/>
    <g>
      <path d="M177.13-69.25h-0.5a6,6,0,0,0-6,6,6,6,0,0,0,6,6h0v12h18v-12a6,6,0,0,0,6-6h0a6,6,0,0,0-6-6h-0.51" transform="translate(-0.94 77.83)" style="fill: none;stroke: #fff;stroke-linecap: round;stroke-linejoin: round;stroke-width: 1.8749994039535522px"/>
      <path d="M194.63-66.25a9,9,0,0,0-9-9,9,9,0,0,0-9,9" transform="translate(-0.94 77.83)" style="fill: none;stroke: #fff;stroke-linecap: round;stroke-linejoin: round;stroke-width: 1.8749994039535522px"/>
    </g>
  </g>
  <g>
    <g>
      <path d="M285.25-63.59c0,6.63,9,18,12,18s12-11.37,12-18a12,12,0,0,0-12-12A12,12,0,0,0,285.25-63.59Z" transform="translate(-0.94 77.83)" style="fill: none;stroke: #fff;stroke-miterlimit: 22.925600051879883;stroke-width: 1.875px"/>
      <path d="M297.25-60.59a3,3,0,0,0,3-3,3,3,0,0,0-3-3,3,3,0,0,0-3,3A3,3,0,0,0,297.25-60.59Z" transform="translate(-0.94 77.83)" style="fill: none;stroke: #fff;stroke-miterlimit: 22.925600051879883;stroke-width: 1.875px"/>
    </g>
    <rect x="279.06" y="0.1" width="34.5" height="34.5" style="fill: none"/>
  </g>
  <g>
    <path d="M353.1-46.65c-7.33,0-14.61,0-15-.06a10.47,10.47,0,0,1,1.27-5.55c1.24-2.18,4.63-3.2,7.26-4.09,1.1-.37,2.55-0.64,3-1.57a1.33,1.33,0,0,0-.08-1.7A16.64,16.64,0,0,1,347-68.41a6.12,6.12,0,0,1,6.12-6.12,6.12,6.12,0,0,1,6.11,6.12,16.63,16.63,0,0,1-2.6,8.79,1.33,1.33,0,0,0-.08,1.7c0.46,0.94,1.91,1.21,3,1.57,2.63,0.87,6,1.91,7.26,4.09A10.47,10.47,0,0,1,368-46.69C367.71-46.65,360.43-46.65,353.1-46.65Z" transform="translate(-0.94 77.83)" style="fill: none;stroke: #c33;stroke-miterlimit: 22.925600051879883;stroke-width: 1.875px"/>
    <rect x="334.88" width="34.5" height="34.5" style="fill: none"/>
  </g>
  <g>
    <path d="M408.91-46.62c-7.33,0-14.61,0-15-.06a10.47,10.47,0,0,1,1.27-5.55c1.24-2.18,4.63-3.2,7.26-4.09,1.1-.37,2.55-0.64,3-1.57a1.33,1.33,0,0,0-.08-1.7,16.64,16.64,0,0,1-2.59-8.79,6.12,6.12,0,0,1,6.12-6.12A6.12,6.12,0,0,1,415-68.38a16.63,16.63,0,0,1-2.6,8.79,1.33,1.33,0,0,0-.08,1.7c0.46,0.94,1.91,1.21,3,1.57,2.63,0.87,6,1.91,7.26,4.09a10.47,10.47,0,0,1,1.27,5.57C423.52-46.62,416.24-46.62,408.91-46.62Z" transform="translate(-0.94 77.83)" style="fill: none;stroke: #fff;stroke-miterlimit: 22.925600051879883;stroke-width: 1.875px"/>
    <rect x="390.69" y="0.19" width="34.5" height="34.5" style="fill: none"/>
  </g>
</svg>
