<svg data-name="371d173f-78a4-4900-bad3-00aaaf28df21" xmlns="http://www.w3.org/2000/svg" width="425.19" height="34.83" viewBox="0 0 425.19 34.83"><title>Sprite</title><g fill="none"><g stroke="#c33" stroke-linecap="round" stroke-linejoin="round" stroke-width="1.875"><path d="M17.2 2.49v23.58l13.85 6.42V8.39L17.2 2.49z"/><path d="M17.3 26.07L3.44 32.49V8.39l13.86-5.9"/></g><path d="M0 .24h34.5v34.5H0z"/></g><g fill="none"><g stroke="#fff" stroke-linecap="round" stroke-linejoin="round" stroke-width="1.875"><path d="M73.02 2.54v23.58l13.85 6.42V8.44l-13.85-5.9z"/><path d="M73.11 26.12l-13.85 6.42V8.44l13.85-5.9"/></g><path d="M55.81.29h34.5v34.5h-34.5z"/></g><g fill="none"><g stroke="#c33" stroke-linecap="round" stroke-linejoin="round" stroke-width="1.875"><path d="M120.37 8.39h-.5a6 6 0 0 0-6 6 6 6 0 0 0 6 6v12h18v-12a6 6 0 0 0 6-6 6 6 0 0 0-6-6h-.51"/><path d="M137.87 11.39a9 9 0 0 0-9-9 9 9 0 0 0-9 9"/></g><path d="M111.63.14h34.5v34.5h-34.5z"/></g><g fill="none"><g stroke="#c33" stroke-miterlimit="22.926" stroke-width="1.875"><path d="M228.5 14.29c0 6.63 9 18 12 18s12-11.37 12-18a12 12 0 0 0-12-12 12 12 0 0 0-12 12z"/><path d="M240.5 17.29a3 3 0 0 0 3-3 3 3 0 0 0-3-3 3 3 0 0 0-3 3 3 3 0 0 0 3 3z"/></g><path d="M223.25.05h34.5v34.5h-34.5z"/></g><g fill="none"><path d="M167.44.33h34.5v34.5h-34.5z"/><g stroke="#fff" stroke-linecap="round" stroke-linejoin="round" stroke-width="1.875"><path d="M176.19 8.58h-.5a6 6 0 0 0-6 6 6 6 0 0 0 6 6v12h18v-12a6 6 0 0 0 6-6 6 6 0 0 0-6-6h-.51"/><path d="M193.69 11.58a9 9 0 0 0-9-9 9 9 0 0 0-9 9"/></g></g><g fill="none"><g stroke="#fff" stroke-miterlimit="22.926" stroke-width="1.875"><path d="M284.31 14.24c0 6.63 9 18 12 18s12-11.37 12-18a12 12 0 0 0-12-12 12 12 0 0 0-12 12z"/><path d="M296.31 17.24a3 3 0 0 0 3-3 3 3 0 0 0-3-3 3 3 0 0 0-3 3 3 3 0 0 0 3 3z"/></g><path d="M279.06.1h34.5v34.5h-34.5z"/></g><g fill="none"><path d="M352.16 31.18c-7.33 0-14.61 0-15-.06a10.47 10.47 0 0 1 1.27-5.55c1.24-2.18 4.63-3.2 7.26-4.09 1.1-.37 2.55-.64 3-1.57a1.33 1.33 0 0 0-.08-1.7 16.64 16.64 0 0 1-2.55-8.79 6.12 6.12 0 0 1 6.12-6.12 6.12 6.12 0 0 1 6.11 6.12 16.63 16.63 0 0 1-2.6 8.79 1.33 1.33 0 0 0-.08 1.7c.46.94 1.91 1.21 3 1.57 2.63.87 6 1.91 7.26 4.09a10.47 10.47 0 0 1 1.19 5.57c-.29.04-7.57.04-14.9.04z" stroke="#c33" stroke-miterlimit="22.926" stroke-width="1.875"/><path d="M334.88 0h34.5v34.5h-34.5z"/></g><g fill="none"><path d="M407.97 31.21c-7.33 0-14.61 0-15-.06a10.47 10.47 0 0 1 1.27-5.55c1.24-2.18 4.63-3.2 7.26-4.09 1.1-.37 2.55-.64 3-1.57a1.33 1.33 0 0 0-.08-1.7 16.64 16.64 0 0 1-2.59-8.79 6.12 6.12 0 0 1 6.12-6.12 6.12 6.12 0 0 1 6.11 6.12 16.63 16.63 0 0 1-2.6 8.79 1.33 1.33 0 0 0-.08 1.7c.46.94 1.91 1.21 3 1.57 2.63.87 6 1.91 7.26 4.09a10.47 10.47 0 0 1 1.27 5.57c-.33.04-7.61.04-14.94.04z" stroke="#fff" stroke-miterlimit="22.926" stroke-width="1.875"/><path d="M390.69.19h34.5v34.5h-34.5z"/></g></svg>